<svg id="svg" version="1.1" xmlns="http://www.w3.org/2000/svg" xmlns:xlink="http://www.w3.org/1999/xlink" width="400" height="400" viewBox="0, 0, 400,400"><g id="svgg"><path id="path0" d="M0.000 200.000 L 0.000 400.000 200.000 400.000 L 400.000 400.000 400.000 200.000 L 400.000 0.000 200.000 0.000 L 0.000 0.000 0.000 200.000 M220.000 48.135 C 226.966 49.294,232.031 50.462,234.200 51.411 C 234.860 51.699,235.850 52.027,236.400 52.140 C 237.695 52.404,241.051 53.532,242.660 54.243 C 243.354 54.549,244.194 54.800,244.528 54.800 C 245.152 54.800,245.366 54.895,250.298 57.355 C 251.893 58.150,253.468 58.800,253.798 58.800 C 254.129 58.800,254.400 58.986,254.400 59.213 C 254.400 59.439,254.679 59.732,255.020 59.863 C 260.162 61.836,273.984 73.300,280.352 80.873 C 284.176 85.421,290.800 94.745,290.800 95.581 C 290.800 95.764,291.070 96.018,291.400 96.145 C 291.730 96.271,292.000 96.620,292.000 96.920 C 292.000 97.220,292.811 98.981,293.802 100.833 C 294.792 102.685,295.717 104.470,295.856 104.800 C 296.596 106.556,299.301 111.853,299.624 112.180 C 299.831 112.389,300.000 112.901,300.000 113.318 C 300.000 113.735,300.256 114.554,300.568 115.138 C 301.257 116.425,302.384 119.755,302.688 121.400 C 302.810 122.060,303.155 122.955,303.455 123.389 C 303.755 123.823,304.000 124.638,304.000 125.200 C 304.000 125.762,304.247 126.577,304.549 127.011 C 305.084 127.780,305.639 129.737,306.474 133.800 C 306.700 134.900,307.065 136.144,307.286 136.564 C 307.506 136.984,307.830 138.244,308.007 139.364 C 308.183 140.484,308.710 143.110,309.177 145.200 C 310.236 149.934,311.126 155.172,311.624 159.600 C 311.834 161.470,312.184 163.864,312.403 164.920 C 312.621 165.976,312.806 168.136,312.814 169.720 C 312.822 171.304,313.111 174.220,313.456 176.200 C 314.458 181.943,314.714 220.681,313.801 228.251 C 313.432 231.303,312.982 235.780,312.800 238.200 C 312.511 242.047,312.246 244.423,311.441 250.400 C 311.240 251.899,310.379 256.722,309.442 261.600 C 309.126 263.250,308.672 265.107,308.433 265.726 C 308.195 266.345,308.000 267.526,308.000 268.350 C 308.000 269.173,307.736 270.196,307.413 270.624 C 307.090 271.051,306.820 272.002,306.813 272.738 C 306.806 273.474,306.557 274.554,306.260 275.138 C 305.525 276.582,304.407 279.869,304.017 281.732 C 303.840 282.575,303.494 283.466,303.248 283.712 C 303.002 283.958,302.800 284.624,302.800 285.191 C 302.800 285.758,302.553 286.577,302.251 287.011 C 301.949 287.445,301.578 288.373,301.425 289.072 C 301.273 289.772,300.890 290.559,300.574 290.821 C 300.258 291.083,300.000 291.794,300.000 292.400 C 300.000 293.006,299.730 293.726,299.400 294.000 C 299.070 294.274,298.800 294.757,298.800 295.074 C 298.800 295.993,296.599 300.362,294.000 304.600 C 292.834 306.502,292.381 307.283,291.700 308.565 C 290.942 309.992,287.558 314.739,286.399 316.000 C 285.692 316.770,284.653 318.120,284.091 319.000 C 282.927 320.823,271.811 332.000,271.161 332.000 C 270.927 332.000,269.984 332.606,269.067 333.346 C 266.746 335.221,262.222 338.326,261.119 338.802 C 260.614 339.020,259.930 339.368,259.600 339.575 C 259.270 339.783,257.420 340.708,255.490 341.631 C 253.559 342.554,251.883 343.465,251.766 343.655 C 251.649 343.845,251.153 344.000,250.665 344.000 C 250.177 344.000,249.423 344.247,248.989 344.549 C 248.555 344.851,247.603 345.228,246.873 345.387 C 246.143 345.545,245.063 345.927,244.473 346.235 C 243.883 346.543,243.091 346.796,242.714 346.798 C 242.336 346.799,241.436 347.049,240.714 347.354 C 237.838 348.567,231.175 350.028,223.200 351.196 C 212.577 352.751,188.361 352.081,180.000 350.000 C 179.230 349.808,177.430 349.360,176.000 349.004 C 174.570 348.649,172.590 348.208,171.600 348.025 C 169.817 347.695,168.118 347.163,165.800 346.207 C 162.747 344.948,160.145 344.000,159.741 344.000 C 159.497 344.000,159.074 343.730,158.800 343.400 C 158.526 343.070,158.009 342.799,157.651 342.798 C 156.899 342.796,152.712 341.142,151.929 340.538 C 151.638 340.313,150.230 339.438,148.800 338.594 C 138.703 332.630,128.752 324.206,123.293 317.000 C 122.293 315.680,120.895 313.970,120.186 313.200 C 118.719 311.606,116.280 308.144,115.888 307.100 C 115.743 306.715,115.439 306.400,115.213 306.400 C 114.986 306.400,114.800 306.079,114.800 305.686 C 114.800 305.294,113.900 303.670,112.800 302.078 C 111.700 300.487,110.800 298.940,110.800 298.641 C 110.800 298.342,110.542 297.883,110.226 297.621 C 109.910 297.359,109.538 296.630,109.400 296.000 C 109.262 295.370,108.890 294.641,108.574 294.379 C 108.258 294.117,108.000 293.598,108.000 293.227 C 108.000 292.856,107.736 292.204,107.413 291.776 C 107.090 291.349,106.820 290.684,106.813 290.299 C 106.806 289.913,106.440 288.925,106.000 288.104 C 105.560 287.284,105.200 286.406,105.200 286.155 C 105.200 285.904,104.930 285.474,104.600 285.200 C 104.270 284.926,104.000 284.308,104.000 283.827 C 104.000 283.346,103.736 282.604,103.413 282.176 C 103.090 281.749,102.820 281.067,102.813 280.660 C 102.806 280.254,102.549 279.354,102.243 278.660 C 101.482 276.939,100.411 273.694,100.043 272.000 C 99.876 271.230,99.550 270.240,99.319 269.800 C 98.878 268.958,97.802 264.513,97.383 261.800 C 97.248 260.920,96.881 259.521,96.568 258.692 C 96.256 257.862,96.000 256.708,96.000 256.127 C 96.000 255.546,95.741 254.154,95.424 253.035 C 95.108 251.916,94.559 248.930,94.206 246.400 C 93.853 243.870,93.311 240.000,93.001 237.800 C 91.413 226.531,91.111 218.950,91.294 195.000 C 91.467 172.456,91.691 167.647,93.007 158.200 C 93.314 156.000,93.855 152.130,94.210 149.600 C 94.566 147.070,95.100 144.010,95.398 142.800 C 95.697 141.590,96.150 139.430,96.407 138.000 C 97.457 132.139,97.713 130.980,98.048 130.560 C 98.241 130.317,98.514 129.237,98.655 128.160 C 98.796 127.082,99.099 125.840,99.329 125.400 C 99.559 124.960,99.877 123.880,100.034 123.000 C 100.192 122.120,100.805 120.140,101.396 118.600 C 101.987 117.060,102.570 115.260,102.690 114.600 C 102.811 113.940,103.155 113.045,103.455 112.611 C 103.755 112.177,104.000 111.593,104.000 111.312 C 104.000 111.032,104.654 109.407,105.453 107.701 C 106.252 105.996,107.133 104.060,107.410 103.400 C 108.652 100.441,109.815 98.079,110.756 96.600 C 111.316 95.720,112.209 94.190,112.739 93.200 C 117.218 84.845,130.522 69.712,137.200 65.376 C 138.410 64.590,139.580 63.723,139.800 63.449 C 140.327 62.791,149.352 57.453,151.400 56.587 C 152.280 56.216,153.540 55.672,154.200 55.380 C 158.332 53.550,159.210 53.199,159.678 53.187 C 159.965 53.180,160.549 52.910,160.976 52.587 C 161.404 52.264,162.267 52.000,162.896 52.000 C 163.525 52.000,164.526 51.755,165.120 51.456 C 165.714 51.157,167.082 50.797,168.160 50.656 C 169.237 50.514,170.317 50.245,170.560 50.057 C 171.063 49.665,176.817 48.571,182.400 47.806 C 187.987 47.040,214.829 47.274,220.000 48.135 M201.400 149.209 C 196.053 150.294,193.690 150.950,193.136 151.504 C 192.863 151.777,192.327 152.000,191.944 152.000 C 191.561 152.000,191.145 152.166,191.019 152.369 C 190.894 152.572,189.668 153.299,188.296 153.986 C 185.972 155.148,180.586 158.728,180.041 159.473 C 179.908 159.654,179.030 160.324,178.090 160.963 C 177.149 161.601,175.380 163.083,174.159 164.256 C 170.662 167.617,165.751 169.077,163.389 167.460 C 162.955 167.163,162.150 166.809,161.600 166.674 C 161.050 166.538,159.122 165.257,157.317 163.826 C 152.425 159.950,152.365 160.072,150.814 177.200 C 149.373 193.099,149.503 231.177,151.005 233.608 C 151.104 233.769,151.380 235.677,151.618 237.850 C 151.855 240.022,152.504 244.140,153.059 247.000 C 153.614 249.860,154.280 253.370,154.539 254.800 C 154.798 256.230,155.232 257.793,155.505 258.274 C 155.777 258.754,156.000 259.569,156.000 260.085 C 156.000 260.600,156.247 261.377,156.549 261.811 C 156.851 262.245,157.228 263.197,157.387 263.927 C 157.545 264.657,157.927 265.737,158.235 266.327 C 158.543 266.917,158.796 267.783,158.798 268.251 C 158.799 268.719,159.070 269.326,159.400 269.600 C 159.730 269.874,160.000 270.323,160.000 270.598 C 160.000 275.983,173.508 292.000,178.050 292.000 C 178.992 292.000,179.099 289.748,178.213 288.576 C 177.890 288.149,177.620 287.527,177.613 287.194 C 177.606 286.861,177.269 285.961,176.865 285.194 C 175.665 282.919,175.094 276.448,175.755 272.600 C 176.776 266.648,178.520 263.401,183.164 258.800 C 187.162 254.840,187.420 254.692,193.000 253.175 C 205.470 249.784,220.325 257.094,225.977 269.400 C 226.482 270.500,227.087 271.760,227.321 272.200 C 227.952 273.386,228.384 276.038,228.810 281.331 C 229.020 283.933,229.294 286.228,229.419 286.431 C 230.628 288.387,238.595 279.367,242.167 272.000 C 242.753 270.790,243.406 269.530,243.617 269.200 C 244.382 268.003,246.800 262.478,246.800 261.926 C 246.800 261.615,247.002 261.158,247.248 260.912 C 247.494 260.666,247.842 259.775,248.021 258.932 C 248.200 258.089,248.637 256.500,248.992 255.400 C 250.330 251.254,250.488 250.672,250.823 248.662 C 251.212 246.327,251.816 243.356,252.642 239.706 C 252.952 238.334,253.469 235.004,253.791 232.306 C 254.112 229.608,254.568 225.906,254.803 224.080 C 255.539 218.355,255.525 197.762,254.784 197.016 C 254.228 196.457,253.649 196.886,248.865 201.398 C 245.949 204.149,243.387 206.400,243.173 206.400 C 242.958 206.400,242.021 207.088,241.091 207.928 C 240.161 208.769,238.590 209.997,237.600 210.658 C 230.355 215.493,227.926 217.758,226.003 221.473 C 225.454 222.533,224.800 223.670,224.549 224.000 C 223.994 224.729,223.791 226.052,223.032 233.883 C 221.788 246.720,220.846 247.403,204.400 247.386 C 190.476 247.372,186.710 245.784,182.861 238.300 C 179.949 232.637,180.318 213.400,183.460 207.120 C 183.757 206.526,184.000 205.728,184.000 205.346 C 184.000 204.712,184.478 203.537,186.339 199.600 C 189.113 193.729,197.203 184.971,204.200 180.265 C 213.035 174.323,216.428 170.929,219.168 165.288 C 219.626 164.346,220.000 163.215,220.000 162.775 C 220.000 162.335,220.284 161.305,220.631 160.487 C 221.897 157.507,220.944 151.614,218.974 150.238 C 216.470 148.489,207.527 147.966,201.400 149.209 " stroke="none" fill="#22211e" fill-rule="evenodd"></path><path id="path1" d="M184.843 48.672 C 182.791 48.771,181.163 49.061,180.654 49.417 C 180.103 49.803,178.798 50.000,176.787 50.000 C 174.739 50.000,173.501 50.191,172.976 50.587 C 172.549 50.910,171.390 51.186,170.400 51.200 C 169.410 51.214,168.261 51.482,167.846 51.796 C 167.431 52.110,166.261 52.489,165.246 52.639 C 164.231 52.788,163.045 53.155,162.611 53.455 C 162.177 53.755,161.251 54.000,160.554 54.000 C 159.795 54.000,159.193 54.241,159.055 54.600 C 158.929 54.930,158.374 55.200,157.822 55.200 C 157.271 55.200,156.230 55.559,155.510 55.999 C 154.789 56.438,153.904 56.798,153.543 56.799 C 153.181 56.799,152.782 57.070,152.655 57.400 C 152.529 57.730,151.964 58.000,151.400 58.000 C 150.836 58.000,150.271 58.270,150.145 58.600 C 150.018 58.930,149.559 59.200,149.125 59.200 C 148.690 59.200,147.566 59.830,146.626 60.600 C 145.686 61.370,144.531 62.000,144.059 62.000 C 143.562 62.000,143.200 62.253,143.200 62.600 C 143.200 62.971,142.824 63.200,142.214 63.200 C 141.638 63.200,141.050 63.532,140.800 64.000 C 140.565 64.440,140.108 64.800,139.786 64.800 C 139.464 64.800,139.200 65.070,139.200 65.400 C 139.200 65.730,138.949 66.000,138.643 66.000 C 138.336 66.000,137.982 66.270,137.855 66.600 C 137.729 66.930,137.304 67.206,136.913 67.213 C 136.108 67.227,134.000 68.941,134.000 69.581 C 134.000 69.811,133.749 70.000,133.443 70.000 C 133.136 70.000,132.782 70.270,132.655 70.600 C 132.529 70.930,132.149 71.200,131.813 71.200 C 131.476 71.200,131.200 71.476,131.200 71.813 C 131.200 72.149,130.930 72.529,130.600 72.655 C 130.270 72.782,130.000 73.136,130.000 73.443 C 130.000 73.749,129.749 74.000,129.443 74.000 C 129.136 74.000,128.782 74.270,128.655 74.600 C 128.529 74.930,128.149 75.200,127.813 75.200 C 127.476 75.200,127.200 75.451,127.200 75.757 C 127.200 76.064,126.930 76.418,126.600 76.545 C 126.270 76.671,126.000 77.051,126.000 77.387 C 126.000 77.724,125.749 78.000,125.443 78.000 C 125.136 78.000,124.782 78.270,124.655 78.600 C 124.529 78.930,124.149 79.200,123.813 79.200 C 123.476 79.200,123.200 79.476,123.200 79.813 C 123.200 80.149,122.930 80.529,122.600 80.655 C 122.270 80.782,122.000 81.136,122.000 81.443 C 122.000 81.749,121.816 82.000,121.591 82.000 C 121.367 82.000,120.965 82.495,120.700 83.100 C 120.434 83.705,119.988 84.344,119.708 84.520 C 119.429 84.696,119.200 85.082,119.200 85.377 C 119.200 85.673,118.930 86.018,118.600 86.145 C 118.270 86.271,118.000 86.701,118.000 87.099 C 118.000 87.497,117.685 88.126,117.300 88.497 C 115.611 90.126,115.200 90.720,115.200 91.534 C 115.200 92.037,114.949 92.400,114.600 92.400 C 114.241 92.400,114.000 92.769,114.000 93.319 C 114.000 94.241,113.204 95.536,111.900 96.734 C 111.515 97.088,111.200 97.769,111.200 98.246 C 111.200 98.724,110.930 99.218,110.600 99.345 C 110.270 99.471,110.000 100.036,110.000 100.600 C 110.000 101.164,109.730 101.729,109.400 101.855 C 109.070 101.982,108.800 102.492,108.800 102.989 C 108.800 103.486,108.440 104.350,108.000 104.909 C 107.560 105.469,107.200 106.398,107.200 106.976 C 107.200 107.553,106.930 108.129,106.600 108.255 C 106.256 108.387,106.000 108.985,106.000 109.655 C 106.000 110.299,105.751 110.921,105.447 111.037 C 105.143 111.154,104.783 111.946,104.647 112.796 C 104.511 113.647,104.130 114.613,103.800 114.943 C 103.470 115.273,103.200 116.074,103.200 116.722 C 103.200 117.371,102.930 118.126,102.600 118.400 C 102.270 118.674,102.000 119.512,102.000 120.263 C 102.000 121.014,101.750 122.027,101.443 122.514 C 101.137 123.001,100.770 124.231,100.627 125.246 C 100.484 126.261,100.110 127.431,99.796 127.846 C 99.482 128.261,99.214 129.410,99.200 130.400 C 99.186 131.390,98.910 132.549,98.587 132.976 C 98.226 133.453,98.000 134.654,98.000 136.091 C 98.000 137.388,97.754 138.822,97.446 139.314 C 97.142 139.801,96.773 141.456,96.626 142.991 C 96.479 144.526,96.098 146.070,95.780 146.423 C 95.357 146.890,95.200 148.119,95.200 150.960 C 95.200 153.891,95.051 155.006,94.600 155.457 C 94.128 155.929,94.000 157.167,94.000 161.243 C 94.000 165.508,93.876 166.618,93.300 167.496 C 92.221 169.143,92.221 226.263,93.300 228.361 C 93.854 229.438,94.000 230.740,94.000 234.585 C 94.000 238.241,94.146 239.640,94.587 240.224 C 95.007 240.779,95.178 242.102,95.187 244.867 C 95.195 247.259,95.364 248.788,95.630 248.877 C 95.867 248.956,96.286 250.546,96.562 252.410 C 96.837 254.275,97.274 256.193,97.532 256.674 C 97.789 257.154,98.000 258.335,98.000 259.297 C 98.000 260.260,98.264 261.396,98.587 261.824 C 98.910 262.251,99.180 263.457,99.187 264.505 C 99.194 265.553,99.384 266.723,99.608 267.105 C 100.093 267.931,101.570 272.181,101.865 273.600 C 101.979 274.150,102.327 275.167,102.636 275.860 C 102.946 276.554,103.200 277.463,103.200 277.880 C 103.200 278.298,103.358 278.811,103.551 279.020 C 103.744 279.229,104.208 280.343,104.581 281.495 C 104.955 282.648,105.427 283.693,105.631 283.819 C 105.834 283.944,106.000 284.375,106.000 284.775 C 106.000 285.175,106.270 285.726,106.600 286.000 C 106.930 286.274,107.200 286.838,107.200 287.254 C 107.200 287.670,107.371 288.323,107.580 288.705 C 107.788 289.087,108.665 290.840,109.528 292.600 C 110.391 294.360,111.479 296.430,111.947 297.200 C 112.415 297.970,113.135 299.320,113.547 300.200 C 113.959 301.080,114.680 302.143,115.148 302.562 C 115.617 302.981,116.000 303.550,116.000 303.826 C 116.000 304.349,119.110 308.500,119.676 308.733 C 119.854 308.807,120.000 309.085,120.000 309.351 C 120.000 310.472,130.884 321.644,134.833 324.577 C 136.061 325.490,137.861 326.868,138.833 327.640 C 139.805 328.412,141.050 329.258,141.600 329.519 C 142.150 329.780,142.953 330.220,143.385 330.497 C 147.080 332.865,150.678 334.767,151.500 334.787 C 151.775 334.794,152.000 334.968,152.000 335.173 C 152.000 335.378,152.405 335.658,152.900 335.794 C 153.798 336.041,157.250 337.419,158.413 337.995 C 158.750 338.162,159.650 338.434,160.413 338.600 C 161.176 338.766,162.155 339.149,162.589 339.451 C 163.023 339.753,163.797 340.000,164.309 340.000 C 164.821 340.000,165.752 340.265,166.378 340.589 C 167.004 340.912,168.300 341.286,169.258 341.420 C 170.216 341.553,171.360 341.822,171.800 342.017 C 172.240 342.213,173.950 342.555,175.600 342.779 C 177.250 343.003,179.860 343.364,181.400 343.582 C 192.872 345.202,201.710 345.472,209.098 344.425 C 210.584 344.215,213.667 343.962,215.949 343.865 C 218.232 343.767,220.212 343.515,220.349 343.304 C 220.487 343.093,221.860 342.812,223.400 342.678 C 224.940 342.545,226.740 342.259,227.400 342.042 C 228.602 341.647,232.011 340.711,234.984 339.959 C 235.856 339.738,236.756 339.408,236.984 339.225 C 237.213 339.042,237.997 338.765,238.727 338.608 C 239.457 338.452,240.537 338.073,241.127 337.765 C 241.717 337.457,242.493 337.204,242.851 337.202 C 243.209 337.201,243.726 336.930,244.000 336.600 C 244.274 336.270,244.763 336.000,245.087 336.000 C 245.411 336.000,246.244 335.704,246.938 335.343 C 247.632 334.981,248.470 334.558,248.800 334.403 C 250.495 333.603,254.651 331.384,255.000 331.093 C 255.220 330.909,256.570 330.011,258.000 329.099 C 259.430 328.186,260.690 327.339,260.800 327.216 C 260.910 327.093,261.720 326.515,262.600 325.931 C 264.352 324.770,265.784 323.525,271.811 317.926 C 274.017 315.877,276.041 313.750,276.308 313.200 C 276.576 312.650,277.782 311.120,278.988 309.800 C 280.194 308.480,281.185 307.254,281.191 307.076 C 281.196 306.898,281.830 305.927,282.600 304.918 C 283.370 303.910,284.000 302.863,284.000 302.591 C 284.000 302.320,284.280 301.865,284.623 301.581 C 284.966 301.296,285.481 300.502,285.768 299.816 C 286.054 299.130,286.539 298.305,286.844 297.984 C 287.436 297.362,291.385 289.542,292.795 286.200 C 293.259 285.100,293.900 283.690,294.220 283.068 C 294.539 282.445,294.800 281.590,294.800 281.168 C 294.800 280.745,294.972 280.400,295.182 280.400 C 295.392 280.400,295.673 279.725,295.806 278.900 C 295.939 278.075,296.291 276.950,296.587 276.400 C 296.884 275.850,297.254 274.723,297.409 273.896 C 297.564 273.068,297.835 272.302,298.011 272.193 C 298.186 272.085,298.458 271.242,298.613 270.321 C 298.769 269.400,299.145 268.398,299.448 268.095 C 299.753 267.790,300.000 266.741,300.000 265.752 C 300.000 264.766,300.284 263.412,300.630 262.742 C 301.295 261.457,301.769 259.337,302.496 254.400 C 302.740 252.750,303.095 251.295,303.286 251.166 C 303.478 251.037,303.734 249.687,303.857 248.166 C 303.979 246.645,304.321 244.500,304.617 243.400 C 304.912 242.300,305.262 239.780,305.394 237.800 C 305.526 235.820,305.814 233.480,306.034 232.600 C 306.454 230.922,306.933 223.403,307.633 207.500 C 308.120 196.416,307.173 169.804,306.048 163.000 C 305.830 161.680,305.527 158.800,305.376 156.600 C 305.225 154.400,304.877 152.150,304.602 151.600 C 304.328 151.050,304.007 149.092,303.891 147.248 C 303.774 145.405,303.509 143.785,303.301 143.648 C 303.092 143.512,302.804 142.240,302.659 140.823 C 302.515 139.406,302.235 137.696,302.037 137.023 C 301.399 134.849,300.371 130.649,300.012 128.744 C 299.820 127.724,299.481 126.554,299.258 126.144 C 298.822 125.340,298.182 122.979,297.538 119.800 C 297.315 118.700,296.878 117.516,296.567 117.169 C 296.255 116.821,296.000 116.181,296.000 115.745 C 296.000 115.309,295.736 114.604,295.413 114.176 C 295.090 113.749,294.819 113.130,294.810 112.800 C 294.802 112.470,294.543 111.717,294.235 111.127 C 293.927 110.537,293.548 109.457,293.393 108.727 C 293.238 107.997,292.885 107.130,292.609 106.800 C 292.333 106.470,291.990 105.705,291.846 105.100 C 291.702 104.495,291.408 104.000,291.192 104.000 C 290.977 104.000,290.800 103.759,290.800 103.465 C 290.800 102.892,287.624 96.334,287.184 96.000 C 286.918 95.798,285.185 92.804,284.057 90.600 C 283.719 89.940,283.103 89.040,282.687 88.600 C 282.271 88.160,281.605 87.170,281.208 86.400 C 280.810 85.630,280.100 84.652,279.630 84.226 C 279.159 83.801,278.386 82.811,277.911 82.026 C 276.368 79.476,267.356 70.361,263.649 67.600 C 262.910 67.050,261.292 65.837,260.053 64.904 C 258.814 63.972,257.632 63.207,257.426 63.204 C 257.220 63.202,256.680 62.866,256.226 62.458 C 255.772 62.050,254.590 61.285,253.600 60.758 C 252.610 60.231,251.710 59.705,251.600 59.589 C 251.490 59.473,250.590 59.028,249.600 58.600 C 248.610 58.172,247.710 57.718,247.600 57.591 C 247.490 57.463,246.500 57.030,245.400 56.627 C 244.300 56.224,243.229 55.738,243.020 55.547 C 242.811 55.356,242.248 55.200,241.769 55.200 C 241.290 55.200,240.674 54.930,240.400 54.600 C 240.126 54.270,239.263 54.000,238.483 54.000 C 237.702 54.000,236.779 53.766,236.431 53.480 C 236.084 53.193,234.900 52.733,233.800 52.457 C 232.700 52.181,231.740 51.785,231.667 51.577 C 231.593 51.370,230.693 51.194,229.667 51.186 C 228.640 51.178,227.350 50.914,226.800 50.600 C 226.221 50.269,224.690 50.022,223.161 50.014 C 221.519 50.005,220.015 49.747,219.177 49.329 C 217.828 48.655,194.465 48.209,184.843 48.672 M213.200 53.213 C 226.528 54.649,235.380 57.022,245.469 61.864 C 249.638 63.864,257.907 68.925,258.800 70.023 C 258.910 70.158,259.298 70.433,259.663 70.634 C 260.459 71.073,265.106 75.160,267.375 77.416 C 272.176 82.189,277.043 88.531,281.487 95.804 C 286.154 103.443,291.049 115.181,293.996 125.800 C 294.485 127.560,295.044 129.450,295.240 130.000 C 295.619 131.064,296.107 133.364,297.785 142.000 C 298.362 144.970,299.009 148.177,299.223 149.128 C 299.437 150.078,299.787 152.598,300.000 154.728 C 300.214 156.857,300.574 159.770,300.800 161.200 C 304.194 182.669,303.053 225.062,298.412 250.000 C 297.434 255.252,295.625 263.201,295.235 263.959 C 295.054 264.312,294.775 265.320,294.616 266.200 C 294.286 268.030,291.782 275.851,291.192 276.895 C 290.977 277.277,290.800 277.789,290.800 278.034 C 290.800 278.279,290.552 279.046,290.248 279.740 C 289.944 280.433,289.328 281.900,288.878 283.000 C 287.170 287.178,283.748 293.984,281.941 296.800 C 281.588 297.350,280.438 299.139,279.386 300.775 C 271.252 313.430,259.575 323.835,246.553 330.032 C 238.207 334.003,237.667 334.198,229.000 336.384 C 221.858 338.185,220.975 338.356,216.400 338.820 C 214.090 339.055,210.760 339.405,209.000 339.598 C 204.894 340.049,193.936 340.051,189.800 339.602 C 179.044 338.433,174.830 337.749,169.028 336.228 C 163.346 334.739,159.464 333.257,152.200 329.803 C 139.468 323.750,125.450 311.028,119.000 299.672 C 118.780 299.285,118.056 298.075,117.392 296.984 C 115.536 293.935,115.349 293.597,113.863 290.600 C 112.674 288.202,111.468 285.591,109.986 282.200 C 108.881 279.673,108.112 277.539,106.165 271.600 C 104.975 267.970,104.002 264.689,104.001 264.308 C 104.000 263.928,103.754 262.938,103.453 262.108 C 103.152 261.279,102.685 259.520,102.414 258.200 C 101.051 251.543,100.743 249.936,100.227 246.787 C 99.919 244.910,99.478 242.300,99.247 240.987 C 95.577 220.148,95.656 176.157,99.405 153.000 C 101.871 137.770,103.748 129.530,106.694 121.000 C 107.226 119.460,107.806 117.626,107.983 116.925 C 109.101 112.492,114.850 100.437,119.059 93.701 C 138.390 62.765,171.135 48.682,213.200 53.213 M195.000 88.634 C 194.340 88.728,192.360 88.996,190.600 89.230 C 178.144 90.884,167.377 97.080,158.958 107.440 C 157.331 109.441,156.000 111.181,156.000 111.305 C 156.000 111.429,155.367 112.491,154.592 113.665 C 152.883 116.257,149.136 123.853,148.217 126.590 C 147.849 127.685,147.415 128.765,147.251 128.990 C 146.628 129.850,145.123 135.222,145.343 135.797 C 145.656 136.610,146.364 136.559,146.693 135.700 C 147.403 133.848,155.750 126.760,160.800 123.722 C 163.244 122.251,169.995 118.800,170.428 118.800 C 170.657 118.800,171.599 118.460,172.522 118.044 C 176.443 116.278,183.863 114.281,191.400 112.963 C 196.938 111.994,211.587 111.988,216.200 112.952 C 224.310 114.647,225.466 114.928,226.462 115.447 C 227.046 115.751,227.816 116.000,228.173 116.000 C 228.530 116.000,230.662 116.883,232.911 117.963 C 247.330 124.884,254.594 137.067,254.517 154.200 C 254.434 172.588,246.529 186.102,228.476 198.722 C 222.723 202.744,216.991 207.811,215.868 209.867 C 215.648 210.270,215.348 210.690,215.201 210.800 C 214.666 211.200,212.278 216.656,211.700 218.800 C 211.357 220.072,211.000 223.868,210.853 227.800 L 210.600 234.600 198.800 234.600 L 187.000 234.600 186.875 225.800 C 186.732 215.693,187.474 210.800,190.031 205.000 C 190.225 204.560,190.567 203.750,190.791 203.200 C 191.229 202.123,191.319 201.971,193.932 197.898 C 195.874 194.868,201.202 189.366,204.042 187.456 C 205.069 186.765,207.235 185.313,208.855 184.230 C 212.103 182.057,216.596 178.258,218.786 175.834 C 219.564 174.973,220.386 174.073,220.613 173.834 C 229.607 164.378,229.000 145.087,219.542 139.788 C 209.819 134.341,195.573 134.519,183.285 140.242 C 181.681 140.989,180.299 141.600,180.213 141.600 C 179.705 141.600,174.463 144.963,171.361 147.279 C 167.819 149.925,165.404 152.109,162.266 155.504 L 160.732 157.164 154.666 150.948 C 151.330 147.529,147.779 143.848,146.776 142.766 C 144.123 139.907,143.557 140.231,142.525 145.200 C 137.753 168.178,136.473 195.482,138.821 224.200 C 140.070 239.473,143.568 256.160,147.374 265.000 C 147.658 265.660,148.320 267.280,148.845 268.600 C 149.370 269.920,150.199 271.720,150.687 272.600 C 151.174 273.480,151.842 274.790,152.170 275.510 C 154.716 281.094,163.106 290.893,168.269 294.312 C 176.142 299.525,180.708 301.321,191.000 303.250 C 194.350 303.877,205.037 303.892,207.835 303.272 C 208.916 303.033,210.790 302.664,212.000 302.452 C 215.071 301.915,217.693 301.221,218.184 300.815 C 218.413 300.626,219.269 300.347,220.086 300.194 C 220.903 300.041,221.780 299.665,222.035 299.358 C 222.290 299.051,222.701 298.799,222.949 298.798 C 223.599 298.796,227.088 296.978,228.551 295.879 C 229.238 295.363,230.070 294.840,230.400 294.716 C 232.226 294.033,242.002 284.230,242.800 282.282 C 242.910 282.013,243.736 280.715,244.636 279.397 C 246.359 276.871,250.171 269.317,251.598 265.600 C 252.063 264.390,252.601 263.040,252.793 262.600 C 252.986 262.160,253.521 260.450,253.983 258.800 C 254.444 257.150,255.026 255.170,255.276 254.400 C 255.525 253.630,255.959 251.920,256.239 250.600 C 256.519 249.280,257.095 246.580,257.519 244.600 C 257.944 242.620,258.409 240.100,258.554 239.000 C 258.698 237.900,259.079 235.380,259.399 233.400 C 262.147 216.430,262.134 177.421,259.375 161.728 C 259.059 159.929,258.800 157.997,258.800 157.436 C 258.800 155.421,256.462 144.025,254.936 138.600 C 254.379 136.620,253.784 134.436,253.614 133.747 C 253.444 133.058,253.148 132.248,252.955 131.947 C 252.763 131.646,252.397 130.680,252.141 129.800 C 247.676 114.403,236.374 100.236,223.299 93.648 C 216.197 90.069,202.259 87.600,195.000 88.634 M209.200 94.417 C 211.070 94.696,212.713 95.096,212.851 95.305 C 212.988 95.515,213.930 95.781,214.944 95.895 C 215.958 96.009,216.992 96.350,217.243 96.651 C 217.493 96.953,217.958 97.200,218.275 97.200 C 218.880 97.200,222.855 98.797,223.200 99.179 C 223.452 99.457,224.599 100.169,226.400 101.166 C 228.986 102.597,237.092 110.476,237.461 111.916 C 238.169 114.689,235.265 115.020,229.800 112.789 C 229.360 112.609,228.460 112.352,227.800 112.217 C 227.140 112.083,226.060 111.731,225.400 111.435 C 220.553 109.266,215.810 108.651,204.000 108.660 C 194.109 108.667,187.577 109.199,184.587 110.239 C 183.699 110.547,182.159 110.800,181.163 110.800 C 180.167 110.800,179.004 111.064,178.576 111.387 C 178.149 111.710,176.944 111.980,175.899 111.987 C 174.783 111.995,173.380 112.331,172.504 112.800 C 171.684 113.240,170.775 113.600,170.486 113.600 C 170.197 113.600,167.685 114.686,164.905 116.014 C 159.747 118.478,158.800 118.661,158.800 117.193 C 158.800 116.264,161.387 112.000,161.952 112.000 C 162.151 112.000,162.416 111.591,162.541 111.091 C 162.817 109.995,169.800 102.917,170.971 102.547 C 171.427 102.403,172.020 101.973,172.288 101.592 C 172.983 100.605,182.268 96.130,184.298 95.804 C 185.232 95.653,186.088 95.381,186.201 95.199 C 186.313 95.017,187.729 94.744,189.347 94.592 C 190.964 94.441,192.538 94.153,192.844 93.954 C 193.594 93.465,204.967 93.787,209.200 94.417 M211.662 141.884 C 211.958 142.128,212.875 142.455,213.700 142.609 C 214.525 142.763,215.200 143.049,215.200 143.245 C 215.200 143.440,215.425 143.603,215.700 143.607 C 216.545 143.618,219.895 147.030,220.864 148.865 C 222.088 151.186,222.498 160.980,221.439 162.597 C 221.087 163.133,220.800 163.914,220.800 164.332 C 220.800 164.750,220.440 165.550,220.000 166.109 C 219.560 166.669,219.200 167.418,219.200 167.776 C 219.200 168.133,218.930 168.529,218.600 168.655 C 218.270 168.782,218.000 169.108,218.000 169.381 C 218.000 169.653,217.640 170.202,217.200 170.600 C 216.760 170.998,216.400 171.547,216.400 171.819 C 216.400 172.092,216.130 172.418,215.800 172.545 C 215.470 172.671,215.200 173.051,215.200 173.387 C 215.200 173.724,214.930 174.000,214.600 174.000 C 214.270 174.000,214.000 174.270,214.000 174.600 C 214.000 174.933,213.644 175.200,213.200 175.200 C 212.756 175.200,212.400 175.467,212.400 175.800 C 212.400 176.130,212.158 176.400,211.862 176.400 C 211.566 176.400,210.998 176.760,210.600 177.200 C 210.202 177.640,209.653 178.000,209.381 178.000 C 209.108 178.000,208.782 178.270,208.655 178.600 C 208.529 178.930,208.149 179.200,207.813 179.200 C 207.476 179.200,207.200 179.431,207.200 179.712 C 207.200 179.994,206.705 180.451,206.100 180.728 C 203.864 181.751,203.200 182.202,203.200 182.695 C 203.200 182.973,202.885 183.201,202.500 183.202 C 202.115 183.203,201.115 183.833,200.278 184.602 C 199.440 185.371,198.585 186.000,198.378 186.000 C 198.170 186.000,198.000 186.270,198.000 186.600 C 198.000 186.930,197.730 187.200,197.400 187.200 C 197.070 187.200,196.800 187.487,196.800 187.837 C 196.800 188.188,196.440 188.569,196.000 188.684 C 195.560 188.799,195.200 189.142,195.200 189.447 C 195.200 189.751,194.930 190.000,194.600 190.000 C 194.270 190.000,194.000 190.270,194.000 190.600 C 194.000 190.930,193.730 191.200,193.400 191.200 C 193.070 191.200,192.800 191.464,192.800 191.786 C 192.800 192.108,192.440 192.565,192.000 192.800 C 191.560 193.035,191.200 193.587,191.200 194.027 C 191.200 194.466,190.930 194.929,190.600 195.055 C 190.270 195.182,190.000 195.542,190.000 195.855 C 190.000 196.169,189.741 196.524,189.424 196.646 C 189.108 196.767,188.734 197.392,188.593 198.033 C 188.452 198.675,188.081 199.200,187.768 199.200 C 187.402 199.200,187.200 199.632,187.200 200.413 C 187.200 201.121,186.951 201.721,186.600 201.855 C 186.266 201.983,186.000 202.578,186.000 203.194 C 186.000 203.803,185.753 204.507,185.452 204.757 C 185.150 205.007,184.806 205.943,184.686 206.837 C 184.566 207.731,184.183 208.777,183.834 209.163 C 183.366 209.680,183.200 210.706,183.200 213.083 C 183.200 215.456,183.042 216.433,182.600 216.800 C 181.836 217.434,181.728 231.144,182.466 233.754 C 182.963 235.511,185.237 238.231,186.561 238.651 C 187.002 238.791,187.620 239.163,187.934 239.477 C 188.710 240.253,208.874 240.088,209.661 239.300 C 209.935 239.025,210.447 238.800,210.797 238.800 C 211.481 238.800,214.230 236.041,215.182 234.400 C 215.587 233.700,215.802 231.778,215.898 228.000 C 216.039 222.414,216.711 219.133,218.509 215.251 C 219.225 213.705,223.637 208.442,224.545 208.052 C 224.734 207.970,225.266 207.471,225.726 206.941 C 226.186 206.412,227.471 205.405,228.581 204.703 C 229.692 204.001,230.690 203.324,230.800 203.200 C 231.347 202.580,234.722 200.000,234.986 200.000 C 236.391 200.000,247.838 188.329,249.869 184.827 C 250.451 183.822,251.169 182.856,251.464 182.680 C 251.759 182.504,252.000 182.187,252.000 181.975 C 252.000 180.822,253.846 178.789,254.800 178.892 C 256.201 179.043,256.461 183.080,256.539 205.800 C 256.595 222.359,256.544 223.879,255.900 224.789 C 255.333 225.591,255.200 226.638,255.200 230.318 C 255.200 233.819,255.063 234.994,254.600 235.457 C 254.194 235.863,254.000 236.869,254.000 238.567 C 254.000 239.948,253.748 241.600,253.441 242.239 C 253.133 242.877,252.760 244.604,252.612 246.075 C 252.457 247.608,252.098 248.953,251.771 249.224 C 251.409 249.525,251.200 250.467,251.200 251.800 C 251.200 253.181,250.994 254.073,250.600 254.400 C 250.262 254.681,250.000 255.553,250.000 256.400 C 250.000 257.226,249.752 258.107,249.450 258.359 C 249.147 258.610,248.789 259.508,248.653 260.356 C 248.518 261.203,248.136 262.122,247.804 262.397 C 247.472 262.673,247.200 263.512,247.200 264.262 C 247.200 265.105,246.971 265.713,246.600 265.855 C 246.256 265.987,246.000 266.585,246.000 267.255 C 246.000 267.904,245.744 268.523,245.424 268.646 C 245.108 268.767,244.736 269.379,244.599 270.006 C 244.461 270.632,244.090 271.359,243.774 271.621 C 243.458 271.883,243.200 272.507,243.200 273.006 C 243.200 273.506,242.930 274.018,242.600 274.145 C 242.270 274.271,242.000 274.680,242.000 275.054 C 242.000 275.695,241.533 276.328,239.900 277.903 C 239.515 278.274,239.200 278.988,239.200 279.489 C 239.200 280.032,238.958 280.400,238.600 280.400 C 238.267 280.400,238.000 280.756,238.000 281.200 C 238.000 281.640,237.841 282.000,237.647 282.000 C 237.187 282.000,234.000 285.187,234.000 285.647 C 234.000 285.841,233.773 286.000,233.496 286.000 C 233.219 286.000,232.771 286.355,232.499 286.789 C 232.045 287.516,227.802 290.585,225.292 292.000 C 224.707 292.330,223.984 292.825,223.686 293.100 C 223.387 293.375,222.818 293.600,222.420 293.600 C 222.023 293.600,221.474 293.870,221.200 294.200 C 220.926 294.530,220.296 294.800,219.800 294.800 C 219.304 294.800,218.674 295.070,218.400 295.400 C 217.848 296.066,213.412 296.267,213.027 295.644 C 212.907 295.449,213.718 294.334,214.831 293.167 C 218.198 289.637,220.000 287.329,220.001 286.544 C 220.002 286.135,220.339 285.250,220.749 284.577 C 222.728 281.332,222.680 271.179,220.667 267.320 C 220.300 266.616,220.000 265.751,220.000 265.399 C 220.000 263.869,213.502 257.351,211.046 256.418 C 210.514 256.215,209.960 255.858,209.815 255.625 C 209.671 255.391,209.133 255.200,208.619 255.200 C 208.106 255.200,207.582 254.930,207.455 254.600 C 207.262 254.096,206.016 254.000,199.662 254.000 C 193.426 254.000,192.011 254.105,191.600 254.600 C 191.326 254.930,190.584 255.200,189.951 255.200 C 189.318 255.200,188.800 255.378,188.800 255.595 C 188.800 255.812,188.170 256.252,187.400 256.574 C 186.630 256.896,186.000 257.348,186.000 257.580 C 186.000 257.811,185.749 258.000,185.443 258.000 C 185.136 258.000,184.782 258.270,184.655 258.600 C 184.529 258.930,184.149 259.200,183.813 259.200 C 183.476 259.200,183.200 259.476,183.200 259.813 C 183.200 260.149,182.930 260.529,182.600 260.655 C 182.270 260.782,182.000 261.136,182.000 261.443 C 182.000 261.749,181.744 262.000,181.432 262.000 C 181.119 262.000,180.745 262.540,180.600 263.200 C 180.455 263.860,180.081 264.400,179.768 264.400 C 179.402 264.400,179.200 264.832,179.200 265.613 C 179.200 266.321,178.951 266.921,178.600 267.055 C 178.253 267.188,178.000 267.786,178.000 268.471 C 178.000 269.124,177.730 269.927,177.400 270.257 C 176.558 271.099,176.558 281.327,177.400 282.800 C 177.714 283.350,177.978 284.183,177.986 284.651 C 177.994 285.119,178.270 285.726,178.600 286.000 C 178.930 286.274,179.200 286.772,179.200 287.108 C 179.200 287.771,180.906 289.967,183.983 293.261 C 186.202 295.636,186.203 296.000,183.991 296.000 C 180.599 296.000,172.318 291.802,168.720 288.258 C 167.906 287.456,167.055 286.800,166.829 286.800 C 166.603 286.800,166.103 286.305,165.718 285.700 C 165.333 285.095,164.089 283.636,162.954 282.458 C 161.819 281.280,160.650 279.840,160.357 279.258 C 160.064 278.676,159.347 277.570,158.764 276.800 C 157.412 275.015,153.868 268.240,153.208 266.177 C 152.930 265.310,152.545 264.429,152.352 264.220 C 152.158 264.011,152.000 263.618,152.000 263.346 C 152.000 263.074,151.789 262.345,151.531 261.726 C 151.005 260.461,150.394 258.532,149.401 255.000 C 149.030 253.680,148.588 252.420,148.418 252.200 C 148.249 251.980,148.003 250.851,147.873 249.690 C 147.742 248.530,147.492 247.360,147.318 247.090 C 146.959 246.537,146.214 242.261,145.595 237.200 C 145.366 235.330,144.978 232.990,144.733 232.000 C 143.366 226.475,142.051 180.547,143.198 178.404 C 143.425 177.979,143.715 174.970,143.843 171.716 C 143.971 168.462,144.259 165.080,144.484 164.200 C 144.709 163.320,145.116 160.673,145.388 158.319 C 146.232 151.024,147.354 150.440,151.720 155.024 C 155.980 159.497,161.919 161.624,164.090 159.453 C 164.391 159.152,165.005 158.789,165.453 158.647 C 165.902 158.504,167.424 157.260,168.835 155.883 C 171.597 153.186,174.912 150.400,175.358 150.400 C 175.509 150.400,176.010 150.049,176.471 149.620 C 176.931 149.191,177.959 148.534,178.754 148.161 C 179.549 147.787,180.290 147.371,180.400 147.235 C 180.605 146.981,186.665 144.000,186.975 144.000 C 187.070 144.000,187.655 143.788,188.274 143.530 C 189.355 143.078,192.007 142.363,195.400 141.608 C 197.674 141.102,210.989 141.328,211.662 141.884 M204.200 258.374 C 222.238 264.111,222.133 288.341,204.047 293.831 C 194.171 296.828,183.006 289.570,181.237 279.000 C 179.035 265.849,191.762 254.418,204.200 258.374 " stroke="none" fill="#feb286" fill-rule="evenodd"></path><path id="path2" d="M185.200 53.212 C 154.967 56.868,134.089 69.648,119.059 93.701 C 114.850 100.437,109.101 112.492,107.983 116.925 C 107.806 117.626,107.226 119.460,106.694 121.000 C 103.748 129.530,101.871 137.770,99.405 153.000 C 95.656 176.157,95.577 220.148,99.247 240.987 C 99.478 242.300,99.919 244.910,100.227 246.787 C 100.743 249.936,101.051 251.543,102.414 258.200 C 102.685 259.520,103.152 261.279,103.453 262.108 C 103.754 262.938,104.000 263.928,104.001 264.308 C 104.002 265.043,107.879 277.101,108.982 279.800 C 110.876 284.435,114.333 291.824,115.718 294.200 C 115.974 294.640,116.728 295.893,117.392 296.984 C 118.056 298.075,118.780 299.285,119.000 299.672 C 125.450 311.028,139.468 323.750,152.200 329.803 C 159.464 333.257,163.346 334.739,169.028 336.228 C 174.830 337.749,179.044 338.433,189.800 339.602 C 193.936 340.051,204.894 340.049,209.000 339.598 C 210.760 339.405,214.090 339.055,216.400 338.820 C 220.975 338.356,221.858 338.185,229.000 336.384 C 237.667 334.198,238.207 334.003,246.553 330.032 C 259.575 323.835,271.252 313.430,279.386 300.775 C 280.438 299.139,281.588 297.350,281.941 296.800 C 283.748 293.984,287.170 287.178,288.878 283.000 C 289.328 281.900,289.944 280.433,290.248 279.740 C 290.552 279.046,290.800 278.279,290.800 278.034 C 290.800 277.789,290.977 277.277,291.192 276.895 C 291.782 275.851,294.286 268.030,294.616 266.200 C 294.775 265.320,295.054 264.312,295.235 263.959 C 295.625 263.201,297.434 255.252,298.412 250.000 C 303.053 225.062,304.194 182.669,300.800 161.200 C 300.574 159.770,300.214 156.857,300.000 154.728 C 299.787 152.598,299.437 150.078,299.223 149.128 C 299.009 148.177,298.362 144.970,297.785 142.000 C 296.107 133.364,295.619 131.064,295.240 130.000 C 295.044 129.450,294.485 127.560,293.996 125.800 C 291.049 115.181,286.154 103.443,281.487 95.804 C 277.043 88.531,272.176 82.189,267.375 77.416 C 265.106 75.160,260.459 71.073,259.663 70.634 C 259.298 70.433,258.910 70.158,258.800 70.023 C 257.439 68.349,247.373 62.560,241.295 59.955 C 226.644 53.675,203.941 50.946,185.200 53.212 M210.001 89.401 C 229.417 92.765,246.016 108.679,252.141 129.800 C 252.397 130.680,252.763 131.646,252.955 131.947 C 253.148 132.248,253.444 133.058,253.614 133.747 C 253.784 134.436,254.379 136.620,254.936 138.600 C 256.462 144.025,258.800 155.421,258.800 157.436 C 258.800 157.997,259.059 159.929,259.375 161.728 C 262.134 177.421,262.147 216.430,259.399 233.400 C 259.079 235.380,258.698 237.900,258.554 239.000 C 258.409 240.100,257.944 242.620,257.519 244.600 C 257.095 246.580,256.519 249.280,256.239 250.600 C 255.959 251.920,255.525 253.630,255.276 254.400 C 255.026 255.170,254.444 257.150,253.983 258.800 C 253.521 260.450,252.986 262.160,252.793 262.600 C 252.601 263.040,252.063 264.390,251.598 265.600 C 250.171 269.317,246.359 276.871,244.636 279.397 C 243.736 280.715,242.910 282.013,242.800 282.282 C 242.002 284.230,232.226 294.033,230.400 294.716 C 230.070 294.840,229.238 295.363,228.551 295.879 C 227.088 296.978,223.599 298.796,222.949 298.798 C 222.701 298.799,222.290 299.051,222.035 299.358 C 221.780 299.665,220.903 300.041,220.086 300.194 C 219.269 300.347,218.413 300.626,218.184 300.815 C 217.693 301.221,215.071 301.915,212.000 302.452 C 210.790 302.664,208.916 303.033,207.835 303.272 C 199.444 305.130,184.021 302.840,175.218 298.430 C 165.771 293.696,156.058 284.037,152.170 275.510 C 151.842 274.790,151.174 273.480,150.687 272.600 C 150.199 271.720,149.370 269.920,148.845 268.600 C 148.320 267.280,147.658 265.660,147.374 265.000 C 145.296 260.173,143.047 252.001,141.429 243.400 C 136.000 214.530,136.447 174.463,142.525 145.200 C 143.557 140.231,144.123 139.907,146.776 142.766 C 147.779 143.848,151.330 147.529,154.666 150.948 L 160.732 157.164 162.266 155.504 C 165.404 152.109,167.819 149.925,171.361 147.279 C 174.463 144.963,179.705 141.600,180.213 141.600 C 180.299 141.600,181.681 140.989,183.285 140.242 C 195.573 134.519,209.819 134.341,219.542 139.788 C 229.000 145.087,229.607 164.378,220.613 173.834 C 220.386 174.073,219.564 174.973,218.786 175.834 C 216.596 178.258,212.103 182.057,208.855 184.230 C 207.235 185.313,205.069 186.765,204.042 187.456 C 201.202 189.366,195.874 194.868,193.932 197.898 C 191.319 201.971,191.229 202.123,190.791 203.200 C 190.567 203.750,190.225 204.560,190.031 205.000 C 187.474 210.800,186.732 215.693,186.875 225.800 L 187.000 234.600 198.800 234.600 L 210.600 234.600 210.853 227.800 C 211.000 223.868,211.357 220.072,211.700 218.800 C 212.278 216.656,214.666 211.200,215.201 210.800 C 215.348 210.690,215.648 210.270,215.868 209.867 C 216.991 207.811,222.723 202.744,228.476 198.722 C 246.529 186.102,254.434 172.588,254.517 154.200 C 254.594 137.067,247.330 124.884,232.911 117.963 C 230.662 116.883,228.530 116.000,228.173 116.000 C 227.816 116.000,227.046 115.751,226.462 115.447 C 225.466 114.928,224.310 114.647,216.200 112.952 C 205.127 110.638,183.317 113.181,172.522 118.044 C 171.599 118.460,170.657 118.800,170.428 118.800 C 169.995 118.800,163.244 122.251,160.800 123.722 C 155.750 126.760,147.403 133.848,146.693 135.700 C 146.364 136.559,145.656 136.610,145.343 135.797 C 145.123 135.222,146.628 129.850,147.251 128.990 C 147.415 128.765,147.849 127.685,148.217 126.590 C 149.136 123.853,152.883 116.257,154.592 113.665 C 155.367 112.491,156.000 111.429,156.000 111.305 C 156.000 111.181,157.331 109.441,158.958 107.440 C 167.377 97.080,178.144 90.884,190.600 89.230 C 192.360 88.996,194.340 88.728,195.000 88.634 C 197.183 88.323,206.542 88.802,210.001 89.401 M194.400 258.354 C 180.617 262.673,176.376 278.788,186.381 288.829 C 196.320 298.804,212.284 294.957,216.802 281.499 C 221.334 267.997,207.905 254.123,194.400 258.354 " stroke="none" fill="#fef3e2" fill-rule="evenodd"></path><path id="path3" d="M182.400 47.806 C 176.817 48.571,171.063 49.665,170.560 50.057 C 170.317 50.245,169.237 50.514,168.160 50.656 C 167.082 50.797,165.714 51.157,165.120 51.456 C 164.526 51.755,163.525 52.000,162.896 52.000 C 162.267 52.000,161.404 52.264,160.976 52.587 C 160.549 52.910,159.965 53.180,159.678 53.187 C 159.210 53.199,158.332 53.550,154.200 55.380 C 153.540 55.672,152.280 56.216,151.400 56.587 C 149.352 57.453,140.327 62.791,139.800 63.449 C 139.580 63.723,138.410 64.590,137.200 65.376 C 130.522 69.712,117.218 84.845,112.739 93.200 C 112.209 94.190,111.316 95.720,110.756 96.600 C 109.815 98.079,108.652 100.441,107.410 103.400 C 107.133 104.060,106.252 105.996,105.453 107.701 C 104.654 109.407,104.000 111.032,104.000 111.312 C 104.000 111.593,103.755 112.177,103.455 112.611 C 103.155 113.045,102.811 113.940,102.690 114.600 C 102.570 115.260,101.987 117.060,101.396 118.600 C 100.805 120.140,100.192 122.120,100.034 123.000 C 99.877 123.880,99.559 124.960,99.329 125.400 C 99.099 125.840,98.796 127.082,98.655 128.160 C 98.514 129.237,98.241 130.317,98.048 130.560 C 97.713 130.980,97.457 132.139,96.407 138.000 C 96.150 139.430,95.697 141.590,95.398 142.800 C 95.100 144.010,94.566 147.070,94.210 149.600 C 93.855 152.130,93.314 156.000,93.007 158.200 C 90.495 176.230,90.491 219.987,93.001 237.800 C 93.311 240.000,93.853 243.870,94.206 246.400 C 94.559 248.930,95.108 251.916,95.424 253.035 C 95.741 254.154,96.000 255.546,96.000 256.127 C 96.000 256.708,96.256 257.862,96.568 258.692 C 96.881 259.521,97.248 260.920,97.383 261.800 C 97.802 264.513,98.878 268.958,99.319 269.800 C 99.550 270.240,99.876 271.230,100.043 272.000 C 100.411 273.694,101.482 276.939,102.243 278.660 C 102.549 279.354,102.806 280.254,102.813 280.660 C 102.820 281.067,103.090 281.749,103.413 282.176 C 103.736 282.604,104.000 283.346,104.000 283.827 C 104.000 284.308,104.270 284.926,104.600 285.200 C 104.930 285.474,105.200 285.904,105.200 286.155 C 105.200 286.406,105.560 287.284,106.000 288.104 C 106.440 288.925,106.806 289.913,106.813 290.299 C 106.820 290.684,107.090 291.349,107.413 291.776 C 107.736 292.204,108.000 292.856,108.000 293.227 C 108.000 293.598,108.258 294.117,108.574 294.379 C 108.890 294.641,109.262 295.370,109.400 296.000 C 109.538 296.630,109.910 297.359,110.226 297.621 C 110.542 297.883,110.800 298.342,110.800 298.641 C 110.800 298.940,111.700 300.487,112.800 302.078 C 113.900 303.670,114.800 305.294,114.800 305.686 C 114.800 306.079,114.986 306.400,115.213 306.400 C 115.439 306.400,115.743 306.715,115.888 307.100 C 116.280 308.144,118.719 311.606,120.186 313.200 C 120.895 313.970,122.293 315.680,123.293 317.000 C 128.752 324.206,138.703 332.630,148.800 338.594 C 150.230 339.438,151.638 340.313,151.929 340.538 C 152.712 341.142,156.899 342.796,157.651 342.798 C 158.009 342.799,158.526 343.070,158.800 343.400 C 159.074 343.730,159.497 344.000,159.741 344.000 C 160.145 344.000,162.747 344.948,165.800 346.207 C 168.118 347.163,169.817 347.695,171.600 348.025 C 172.590 348.208,174.570 348.649,176.000 349.004 C 177.430 349.360,179.230 349.808,180.000 350.000 C 188.361 352.081,212.577 352.751,223.200 351.196 C 231.175 350.028,237.838 348.567,240.714 347.354 C 241.436 347.049,242.336 346.799,242.714 346.798 C 243.091 346.796,243.883 346.543,244.473 346.235 C 245.063 345.927,246.143 345.545,246.873 345.387 C 247.603 345.228,248.555 344.851,248.989 344.549 C 249.423 344.247,250.177 344.000,250.665 344.000 C 251.153 344.000,251.649 343.845,251.766 343.655 C 251.883 343.465,253.559 342.554,255.490 341.631 C 257.420 340.708,259.270 339.783,259.600 339.575 C 259.930 339.368,260.614 339.020,261.119 338.802 C 262.222 338.326,266.746 335.221,269.067 333.346 C 269.984 332.606,270.927 332.000,271.161 332.000 C 271.811 332.000,282.927 320.823,284.091 319.000 C 284.653 318.120,285.692 316.770,286.399 316.000 C 287.558 314.739,290.942 309.992,291.700 308.565 C 292.381 307.283,292.834 306.502,294.000 304.600 C 296.599 300.362,298.800 295.993,298.800 295.074 C 298.800 294.757,299.070 294.274,299.400 294.000 C 299.730 293.726,300.000 293.006,300.000 292.400 C 300.000 291.794,300.258 291.083,300.574 290.821 C 300.890 290.559,301.273 289.772,301.425 289.072 C 301.578 288.373,301.949 287.445,302.251 287.011 C 302.553 286.577,302.800 285.758,302.800 285.191 C 302.800 284.624,303.002 283.958,303.248 283.712 C 303.494 283.466,303.840 282.575,304.017 281.732 C 304.407 279.869,305.525 276.582,306.260 275.138 C 306.557 274.554,306.806 273.474,306.813 272.738 C 306.820 272.002,307.090 271.051,307.413 270.624 C 307.736 270.196,308.000 269.173,308.000 268.350 C 308.000 267.526,308.195 266.345,308.433 265.726 C 308.672 265.107,309.126 263.250,309.442 261.600 C 310.379 256.722,311.240 251.899,311.441 250.400 C 312.246 244.423,312.511 242.047,312.800 238.200 C 312.982 235.780,313.432 231.303,313.801 228.251 C 314.714 220.681,314.458 181.943,313.456 176.200 C 313.111 174.220,312.822 171.304,312.814 169.720 C 312.806 168.136,312.621 165.976,312.403 164.920 C 312.184 163.864,311.834 161.470,311.624 159.600 C 311.126 155.172,310.236 149.934,309.177 145.200 C 308.710 143.110,308.183 140.484,308.007 139.364 C 307.830 138.244,307.506 136.984,307.286 136.564 C 307.065 136.144,306.700 134.900,306.474 133.800 C 305.639 129.737,305.084 127.780,304.549 127.011 C 304.247 126.577,304.000 125.762,304.000 125.200 C 304.000 124.638,303.755 123.823,303.455 123.389 C 303.155 122.955,302.810 122.060,302.688 121.400 C 302.384 119.755,301.257 116.425,300.568 115.138 C 300.256 114.554,300.000 113.735,300.000 113.318 C 300.000 112.901,299.831 112.389,299.624 112.180 C 299.301 111.853,296.596 106.556,295.856 104.800 C 295.717 104.470,294.792 102.685,293.802 100.833 C 292.811 98.981,292.000 97.220,292.000 96.920 C 292.000 96.620,291.730 96.271,291.400 96.145 C 291.070 96.018,290.800 95.764,290.800 95.581 C 290.800 94.745,284.176 85.421,280.352 80.873 C 273.984 73.300,260.162 61.836,255.020 59.863 C 254.679 59.732,254.400 59.439,254.400 59.213 C 254.400 58.986,254.129 58.800,253.798 58.800 C 253.468 58.800,251.893 58.150,250.298 57.355 C 245.366 54.895,245.152 54.800,244.528 54.800 C 244.194 54.800,243.354 54.549,242.660 54.243 C 241.051 53.532,237.695 52.404,236.400 52.140 C 235.850 52.027,234.860 51.699,234.200 51.411 C 232.031 50.462,226.966 49.294,220.000 48.135 C 214.829 47.274,187.987 47.040,182.400 47.806 M219.177 49.329 C 220.015 49.747,221.519 50.005,223.161 50.014 C 224.690 50.022,226.221 50.269,226.800 50.600 C 227.350 50.914,228.640 51.178,229.667 51.186 C 230.693 51.194,231.593 51.370,231.667 51.577 C 231.740 51.785,232.700 52.181,233.800 52.457 C 234.900 52.733,236.084 53.193,236.431 53.480 C 236.779 53.766,237.702 54.000,238.483 54.000 C 239.263 54.000,240.126 54.270,240.400 54.600 C 240.674 54.930,241.290 55.200,241.769 55.200 C 242.248 55.200,242.811 55.356,243.020 55.547 C 243.229 55.738,244.300 56.224,245.400 56.627 C 246.500 57.030,247.490 57.463,247.600 57.591 C 247.710 57.718,248.610 58.172,249.600 58.600 C 250.590 59.028,251.490 59.473,251.600 59.589 C 251.710 59.705,252.610 60.231,253.600 60.758 C 254.590 61.285,255.772 62.050,256.226 62.458 C 256.680 62.866,257.220 63.202,257.426 63.204 C 257.632 63.207,258.814 63.972,260.053 64.904 C 261.292 65.837,262.910 67.050,263.649 67.600 C 267.356 70.361,276.368 79.476,277.911 82.026 C 278.386 82.811,279.159 83.801,279.630 84.226 C 280.100 84.652,280.810 85.630,281.208 86.400 C 281.605 87.170,282.271 88.160,282.687 88.600 C 283.103 89.040,283.719 89.940,284.057 90.600 C 285.185 92.804,286.918 95.798,287.184 96.000 C 287.624 96.334,290.800 102.892,290.800 103.465 C 290.800 103.759,290.977 104.000,291.192 104.000 C 291.408 104.000,291.702 104.495,291.846 105.100 C 291.990 105.705,292.333 106.470,292.609 106.800 C 292.885 107.130,293.238 107.997,293.393 108.727 C 293.548 109.457,293.927 110.537,294.235 111.127 C 294.543 111.717,294.802 112.470,294.810 112.800 C 294.819 113.130,295.090 113.749,295.413 114.176 C 295.736 114.604,296.000 115.309,296.000 115.745 C 296.000 116.181,296.255 116.821,296.567 117.169 C 296.878 117.516,297.315 118.700,297.538 119.800 C 298.182 122.979,298.822 125.340,299.258 126.144 C 299.481 126.554,299.820 127.724,300.012 128.744 C 300.371 130.649,301.399 134.849,302.037 137.023 C 302.235 137.696,302.515 139.406,302.659 140.823 C 302.804 142.240,303.092 143.512,303.301 143.648 C 303.509 143.785,303.774 145.405,303.891 147.248 C 304.007 149.092,304.328 151.050,304.602 151.600 C 304.877 152.150,305.225 154.400,305.376 156.600 C 305.527 158.800,305.830 161.680,306.048 163.000 C 307.173 169.804,308.120 196.416,307.633 207.500 C 306.933 223.403,306.454 230.922,306.034 232.600 C 305.814 233.480,305.526 235.820,305.394 237.800 C 305.262 239.780,304.912 242.300,304.617 243.400 C 304.321 244.500,303.979 246.645,303.857 248.166 C 303.734 249.687,303.478 251.037,303.286 251.166 C 303.095 251.295,302.740 252.750,302.496 254.400 C 301.769 259.337,301.295 261.457,300.630 262.742 C 300.284 263.412,300.000 264.766,300.000 265.752 C 300.000 266.741,299.753 267.790,299.448 268.095 C 299.145 268.398,298.769 269.400,298.613 270.321 C 298.458 271.242,298.186 272.085,298.011 272.193 C 297.835 272.302,297.564 273.068,297.409 273.896 C 297.254 274.723,296.884 275.850,296.587 276.400 C 296.291 276.950,295.939 278.075,295.806 278.900 C 295.673 279.725,295.392 280.400,295.182 280.400 C 294.972 280.400,294.800 280.745,294.800 281.168 C 294.800 281.590,294.539 282.445,294.220 283.068 C 293.900 283.690,293.259 285.100,292.795 286.200 C 291.385 289.542,287.436 297.362,286.844 297.984 C 286.539 298.305,286.054 299.130,285.768 299.816 C 285.481 300.502,284.966 301.296,284.623 301.581 C 284.280 301.865,284.000 302.320,284.000 302.591 C 284.000 302.863,283.370 303.910,282.600 304.918 C 281.830 305.927,281.196 306.898,281.191 307.076 C 281.185 307.254,280.194 308.480,278.988 309.800 C 277.782 311.120,276.576 312.650,276.308 313.200 C 276.041 313.750,274.017 315.877,271.811 317.926 C 265.784 323.525,264.352 324.770,262.600 325.931 C 261.720 326.515,260.910 327.093,260.800 327.216 C 260.690 327.339,259.430 328.186,258.000 329.099 C 256.570 330.011,255.220 330.909,255.000 331.093 C 254.651 331.384,250.495 333.603,248.800 334.403 C 248.470 334.558,247.632 334.981,246.938 335.343 C 246.244 335.704,245.411 336.000,245.087 336.000 C 244.763 336.000,244.274 336.270,244.000 336.600 C 243.726 336.930,243.209 337.201,242.851 337.202 C 242.493 337.204,241.717 337.457,241.127 337.765 C 240.537 338.073,239.457 338.452,238.727 338.608 C 237.997 338.765,237.213 339.042,236.984 339.225 C 236.756 339.408,235.856 339.738,234.984 339.959 C 232.011 340.711,228.602 341.647,227.400 342.042 C 226.740 342.259,224.940 342.545,223.400 342.678 C 221.860 342.812,220.487 343.093,220.349 343.304 C 220.212 343.515,218.232 343.767,215.949 343.865 C 213.667 343.962,210.584 344.215,209.098 344.425 C 201.710 345.472,192.872 345.202,181.400 343.582 C 179.860 343.364,177.250 343.003,175.600 342.779 C 173.950 342.555,172.240 342.213,171.800 342.017 C 171.360 341.822,170.216 341.553,169.258 341.420 C 168.300 341.286,167.004 340.912,166.378 340.589 C 165.752 340.265,164.821 340.000,164.309 340.000 C 163.797 340.000,163.023 339.753,162.589 339.451 C 162.155 339.149,161.176 338.766,160.413 338.600 C 159.650 338.434,158.750 338.162,158.413 337.995 C 157.250 337.419,153.798 336.041,152.900 335.794 C 152.405 335.658,152.000 335.378,152.000 335.173 C 152.000 334.968,151.775 334.794,151.500 334.787 C 150.678 334.767,147.080 332.865,143.385 330.497 C 142.953 330.220,142.150 329.780,141.600 329.519 C 141.050 329.258,139.805 328.412,138.833 327.640 C 137.861 326.868,136.061 325.490,134.833 324.577 C 130.884 321.644,120.000 310.472,120.000 309.351 C 120.000 309.085,119.854 308.807,119.676 308.733 C 119.110 308.500,116.000 304.349,116.000 303.826 C 116.000 303.550,115.617 302.981,115.148 302.562 C 114.680 302.143,113.959 301.080,113.547 300.200 C 113.135 299.320,112.415 297.970,111.947 297.200 C 111.479 296.430,110.391 294.360,109.528 292.600 C 108.665 290.840,107.788 289.087,107.580 288.705 C 107.371 288.323,107.200 287.670,107.200 287.254 C 107.200 286.838,106.930 286.274,106.600 286.000 C 106.270 285.726,106.000 285.175,106.000 284.775 C 106.000 284.375,105.834 283.944,105.631 283.819 C 105.427 283.693,104.955 282.648,104.581 281.495 C 104.208 280.343,103.744 279.229,103.551 279.020 C 103.358 278.811,103.200 278.298,103.200 277.880 C 103.200 277.463,102.946 276.554,102.636 275.860 C 102.327 275.167,101.979 274.150,101.865 273.600 C 101.570 272.181,100.093 267.931,99.608 267.105 C 99.384 266.723,99.194 265.553,99.187 264.505 C 99.180 263.457,98.910 262.251,98.587 261.824 C 98.264 261.396,98.000 260.260,98.000 259.297 C 98.000 258.335,97.789 257.154,97.532 256.674 C 97.274 256.193,96.837 254.275,96.562 252.410 C 96.286 250.546,95.867 248.956,95.630 248.877 C 95.364 248.788,95.195 247.259,95.187 244.867 C 95.178 242.102,95.007 240.779,94.587 240.224 C 94.146 239.640,94.000 238.241,94.000 234.585 C 94.000 230.740,93.854 229.438,93.300 228.361 C 92.221 226.263,92.221 169.143,93.300 167.496 C 93.876 166.618,94.000 165.508,94.000 161.243 C 94.000 157.167,94.128 155.929,94.600 155.457 C 95.051 155.006,95.200 153.891,95.200 150.960 C 95.200 148.119,95.357 146.890,95.780 146.423 C 96.098 146.070,96.479 144.526,96.626 142.991 C 96.773 141.456,97.142 139.801,97.446 139.314 C 97.754 138.822,98.000 137.388,98.000 136.091 C 98.000 134.654,98.226 133.453,98.587 132.976 C 98.910 132.549,99.186 131.390,99.200 130.400 C 99.214 129.410,99.482 128.261,99.796 127.846 C 100.110 127.431,100.484 126.261,100.627 125.246 C 100.770 124.231,101.137 123.001,101.443 122.514 C 101.750 122.027,102.000 121.014,102.000 120.263 C 102.000 119.512,102.270 118.674,102.600 118.400 C 102.930 118.126,103.200 117.371,103.200 116.722 C 103.200 116.074,103.470 115.273,103.800 114.943 C 104.130 114.613,104.511 113.647,104.647 112.796 C 104.783 111.946,105.143 111.154,105.447 111.037 C 105.751 110.921,106.000 110.299,106.000 109.655 C 106.000 108.985,106.256 108.387,106.600 108.255 C 106.930 108.129,107.200 107.553,107.200 106.976 C 107.200 106.398,107.560 105.469,108.000 104.909 C 108.440 104.350,108.800 103.486,108.800 102.989 C 108.800 102.492,109.070 101.982,109.400 101.855 C 109.730 101.729,110.000 101.164,110.000 100.600 C 110.000 100.036,110.270 99.471,110.600 99.345 C 110.930 99.218,111.200 98.724,111.200 98.246 C 111.200 97.769,111.515 97.088,111.900 96.734 C 113.204 95.536,114.000 94.241,114.000 93.319 C 114.000 92.769,114.241 92.400,114.600 92.400 C 114.949 92.400,115.200 92.037,115.200 91.534 C 115.200 90.720,115.611 90.126,117.300 88.497 C 117.685 88.126,118.000 87.497,118.000 87.099 C 118.000 86.701,118.270 86.271,118.600 86.145 C 118.930 86.018,119.200 85.673,119.200 85.377 C 119.200 85.082,119.429 84.696,119.708 84.520 C 119.988 84.344,120.434 83.705,120.700 83.100 C 120.965 82.495,121.367 82.000,121.591 82.000 C 121.816 82.000,122.000 81.749,122.000 81.443 C 122.000 81.136,122.270 80.782,122.600 80.655 C 122.930 80.529,123.200 80.149,123.200 79.813 C 123.200 79.476,123.476 79.200,123.813 79.200 C 124.149 79.200,124.529 78.930,124.655 78.600 C 124.782 78.270,125.136 78.000,125.443 78.000 C 125.749 78.000,126.000 77.724,126.000 77.387 C 126.000 77.051,126.270 76.671,126.600 76.545 C 126.930 76.418,127.200 76.064,127.200 75.757 C 127.200 75.451,127.476 75.200,127.813 75.200 C 128.149 75.200,128.529 74.930,128.655 74.600 C 128.782 74.270,129.136 74.000,129.443 74.000 C 129.749 74.000,130.000 73.749,130.000 73.443 C 130.000 73.136,130.270 72.782,130.600 72.655 C 130.930 72.529,131.200 72.149,131.200 71.813 C 131.200 71.476,131.476 71.200,131.813 71.200 C 132.149 71.200,132.529 70.930,132.655 70.600 C 132.782 70.270,133.136 70.000,133.443 70.000 C 133.749 70.000,134.000 69.811,134.000 69.581 C 134.000 68.941,136.108 67.227,136.913 67.213 C 137.304 67.206,137.729 66.930,137.855 66.600 C 137.982 66.270,138.336 66.000,138.643 66.000 C 138.949 66.000,139.200 65.730,139.200 65.400 C 139.200 65.070,139.464 64.800,139.786 64.800 C 140.108 64.800,140.565 64.440,140.800 64.000 C 141.050 63.532,141.638 63.200,142.214 63.200 C 142.824 63.200,143.200 62.971,143.200 62.600 C 143.200 62.253,143.562 62.000,144.059 62.000 C 144.531 62.000,145.686 61.370,146.626 60.600 C 147.566 59.830,148.690 59.200,149.125 59.200 C 149.559 59.200,150.018 58.930,150.145 58.600 C 150.271 58.270,150.836 58.000,151.400 58.000 C 151.964 58.000,152.529 57.730,152.655 57.400 C 152.782 57.070,153.181 56.799,153.543 56.799 C 153.904 56.798,154.789 56.438,155.510 55.999 C 156.230 55.559,157.271 55.200,157.822 55.200 C 158.374 55.200,158.929 54.930,159.055 54.600 C 159.193 54.241,159.795 54.000,160.554 54.000 C 161.251 54.000,162.177 53.755,162.611 53.455 C 163.045 53.155,164.231 52.788,165.246 52.639 C 166.261 52.489,167.431 52.110,167.846 51.796 C 168.261 51.482,169.410 51.214,170.400 51.200 C 171.390 51.186,172.549 50.910,172.976 50.587 C 173.501 50.191,174.739 50.000,176.787 50.000 C 178.798 50.000,180.103 49.803,180.654 49.417 C 182.373 48.213,216.783 48.134,219.177 49.329 M192.844 93.954 C 192.538 94.153,190.964 94.441,189.347 94.592 C 187.729 94.744,186.313 95.017,186.201 95.199 C 186.088 95.381,185.232 95.653,184.298 95.804 C 182.268 96.130,172.983 100.605,172.288 101.592 C 172.020 101.973,171.427 102.403,170.971 102.547 C 169.800 102.917,162.817 109.995,162.541 111.091 C 162.416 111.591,162.151 112.000,161.952 112.000 C 161.387 112.000,158.800 116.264,158.800 117.193 C 158.800 118.661,159.747 118.478,164.905 116.014 C 167.685 114.686,170.197 113.600,170.486 113.600 C 170.775 113.600,171.684 113.240,172.504 112.800 C 173.380 112.331,174.783 111.995,175.899 111.987 C 176.944 111.980,178.149 111.710,178.576 111.387 C 179.004 111.064,180.167 110.800,181.163 110.800 C 182.159 110.800,183.699 110.547,184.587 110.239 C 187.577 109.199,194.109 108.667,204.000 108.660 C 215.810 108.651,220.553 109.266,225.400 111.435 C 226.060 111.731,227.140 112.083,227.800 112.217 C 228.460 112.352,229.360 112.609,229.800 112.789 C 235.265 115.020,238.169 114.689,237.461 111.916 C 237.092 110.476,228.986 102.597,226.400 101.166 C 224.599 100.169,223.452 99.457,223.200 99.179 C 222.855 98.797,218.880 97.200,218.275 97.200 C 217.958 97.200,217.493 96.953,217.243 96.651 C 216.992 96.350,215.958 96.009,214.944 95.895 C 213.930 95.781,212.988 95.515,212.851 95.305 C 212.183 94.288,194.195 93.073,192.844 93.954 M195.400 141.608 C 192.007 142.363,189.355 143.078,188.274 143.530 C 187.655 143.788,187.070 144.000,186.975 144.000 C 186.665 144.000,180.605 146.981,180.400 147.235 C 180.290 147.371,179.549 147.787,178.754 148.161 C 177.959 148.534,176.931 149.191,176.471 149.620 C 176.010 150.049,175.509 150.400,175.358 150.400 C 174.912 150.400,171.597 153.186,168.835 155.883 C 167.424 157.260,165.902 158.504,165.453 158.647 C 165.005 158.789,164.391 159.152,164.090 159.453 C 161.919 161.624,155.980 159.497,151.720 155.024 C 147.354 150.440,146.232 151.024,145.388 158.319 C 145.116 160.673,144.709 163.320,144.484 164.200 C 144.259 165.080,143.971 168.462,143.843 171.716 C 143.715 174.970,143.425 177.979,143.198 178.404 C 142.051 180.547,143.366 226.475,144.733 232.000 C 144.978 232.990,145.366 235.330,145.595 237.200 C 146.214 242.261,146.959 246.537,147.318 247.090 C 147.492 247.360,147.742 248.530,147.873 249.690 C 148.003 250.851,148.249 251.980,148.418 252.200 C 148.588 252.420,149.030 253.680,149.401 255.000 C 150.394 258.532,151.005 260.461,151.531 261.726 C 151.789 262.345,152.000 263.074,152.000 263.346 C 152.000 263.618,152.158 264.011,152.352 264.220 C 152.545 264.429,152.930 265.310,153.208 266.177 C 153.868 268.240,157.412 275.015,158.764 276.800 C 159.347 277.570,160.064 278.676,160.357 279.258 C 160.650 279.840,161.819 281.280,162.954 282.458 C 164.089 283.636,165.333 285.095,165.718 285.700 C 166.103 286.305,166.603 286.800,166.829 286.800 C 167.055 286.800,167.906 287.456,168.720 288.258 C 172.318 291.802,180.599 296.000,183.991 296.000 C 186.203 296.000,186.202 295.636,183.983 293.261 C 180.906 289.967,179.200 287.771,179.200 287.108 C 179.200 286.772,178.930 286.274,178.600 286.000 C 178.270 285.726,177.994 285.119,177.986 284.651 C 177.978 284.183,177.714 283.350,177.400 282.800 C 176.558 281.327,176.558 271.099,177.400 270.257 C 177.730 269.927,178.000 269.124,178.000 268.471 C 178.000 267.786,178.253 267.188,178.600 267.055 C 178.951 266.921,179.200 266.321,179.200 265.613 C 179.200 264.832,179.402 264.400,179.768 264.400 C 180.081 264.400,180.455 263.860,180.600 263.200 C 180.745 262.540,181.119 262.000,181.432 262.000 C 181.744 262.000,182.000 261.749,182.000 261.443 C 182.000 261.136,182.270 260.782,182.600 260.655 C 182.930 260.529,183.200 260.149,183.200 259.813 C 183.200 259.476,183.476 259.200,183.813 259.200 C 184.149 259.200,184.529 258.930,184.655 258.600 C 184.782 258.270,185.136 258.000,185.443 258.000 C 185.749 258.000,186.000 257.811,186.000 257.580 C 186.000 257.348,186.630 256.896,187.400 256.574 C 188.170 256.252,188.800 255.812,188.800 255.595 C 188.800 255.378,189.318 255.200,189.951 255.200 C 190.584 255.200,191.326 254.930,191.600 254.600 C 192.011 254.105,193.426 254.000,199.662 254.000 C 206.016 254.000,207.262 254.096,207.455 254.600 C 207.582 254.930,208.106 255.200,208.619 255.200 C 209.133 255.200,209.671 255.391,209.815 255.625 C 209.960 255.858,210.514 256.215,211.046 256.418 C 213.502 257.351,220.000 263.869,220.000 265.399 C 220.000 265.751,220.300 266.616,220.667 267.320 C 222.680 271.179,222.728 281.332,220.749 284.577 C 220.339 285.250,220.002 286.135,220.001 286.544 C 220.000 287.329,218.198 289.637,214.831 293.167 C 213.718 294.334,212.907 295.449,213.027 295.644 C 213.412 296.267,217.848 296.066,218.400 295.400 C 218.674 295.070,219.304 294.800,219.800 294.800 C 220.296 294.800,220.926 294.530,221.200 294.200 C 221.474 293.870,222.023 293.600,222.420 293.600 C 222.818 293.600,223.387 293.375,223.686 293.100 C 223.984 292.825,224.707 292.330,225.292 292.000 C 227.802 290.585,232.045 287.516,232.499 286.789 C 232.771 286.355,233.219 286.000,233.496 286.000 C 233.773 286.000,234.000 285.841,234.000 285.647 C 234.000 285.187,237.187 282.000,237.647 282.000 C 237.841 282.000,238.000 281.640,238.000 281.200 C 238.000 280.756,238.267 280.400,238.600 280.400 C 238.958 280.400,239.200 280.032,239.200 279.489 C 239.200 278.988,239.515 278.274,239.900 277.903 C 241.533 276.328,242.000 275.695,242.000 275.054 C 242.000 274.680,242.270 274.271,242.600 274.145 C 242.930 274.018,243.200 273.506,243.200 273.006 C 243.200 272.507,243.458 271.883,243.774 271.621 C 244.090 271.359,244.461 270.632,244.599 270.006 C 244.736 269.379,245.108 268.767,245.424 268.646 C 245.744 268.523,246.000 267.904,246.000 267.255 C 246.000 266.585,246.256 265.987,246.600 265.855 C 246.971 265.713,247.200 265.105,247.200 264.262 C 247.200 263.512,247.472 262.673,247.804 262.397 C 248.136 262.122,248.518 261.203,248.653 260.356 C 248.789 259.508,249.147 258.610,249.450 258.359 C 249.752 258.107,250.000 257.226,250.000 256.400 C 250.000 255.553,250.262 254.681,250.600 254.400 C 250.994 254.073,251.200 253.181,251.200 251.800 C 251.200 250.467,251.409 249.525,251.771 249.224 C 252.098 248.953,252.457 247.608,252.612 246.075 C 252.760 244.604,253.133 242.877,253.441 242.239 C 253.748 241.600,254.000 239.948,254.000 238.567 C 254.000 236.869,254.194 235.863,254.600 235.457 C 255.063 234.994,255.200 233.819,255.200 230.318 C 255.200 226.638,255.333 225.591,255.900 224.789 C 256.544 223.879,256.595 222.359,256.539 205.800 C 256.461 183.080,256.201 179.043,254.800 178.892 C 253.846 178.789,252.000 180.822,252.000 181.975 C 252.000 182.187,251.759 182.504,251.464 182.680 C 251.169 182.856,250.451 183.822,249.869 184.827 C 247.838 188.329,236.391 200.000,234.986 200.000 C 234.722 200.000,231.347 202.580,230.800 203.200 C 230.690 203.324,229.692 204.001,228.581 204.703 C 227.471 205.405,226.186 206.412,225.726 206.941 C 225.266 207.471,224.734 207.970,224.545 208.052 C 223.637 208.442,219.225 213.705,218.509 215.251 C 216.711 219.133,216.039 222.414,215.898 228.000 C 215.802 231.778,215.587 233.700,215.182 234.400 C 214.230 236.041,211.481 238.800,210.797 238.800 C 210.447 238.800,209.935 239.025,209.661 239.300 C 208.874 240.088,188.710 240.253,187.934 239.477 C 187.620 239.163,187.002 238.791,186.561 238.651 C 185.237 238.231,182.963 235.511,182.466 233.754 C 181.728 231.144,181.836 217.434,182.600 216.800 C 183.042 216.433,183.200 215.456,183.200 213.083 C 183.200 210.706,183.366 209.680,183.834 209.163 C 184.183 208.777,184.566 207.731,184.686 206.837 C 184.806 205.943,185.150 205.007,185.452 204.757 C 185.753 204.507,186.000 203.803,186.000 203.194 C 186.000 202.578,186.266 201.983,186.600 201.855 C 186.951 201.721,187.200 201.121,187.200 200.413 C 187.200 199.632,187.402 199.200,187.768 199.200 C 188.081 199.200,188.452 198.675,188.593 198.033 C 188.734 197.392,189.108 196.767,189.424 196.646 C 189.741 196.524,190.000 196.169,190.000 195.855 C 190.000 195.542,190.270 195.182,190.600 195.055 C 190.930 194.929,191.200 194.466,191.200 194.027 C 191.200 193.587,191.560 193.035,192.000 192.800 C 192.440 192.565,192.800 192.108,192.800 191.786 C 192.800 191.464,193.070 191.200,193.400 191.200 C 193.730 191.200,194.000 190.930,194.000 190.600 C 194.000 190.270,194.270 190.000,194.600 190.000 C 194.930 190.000,195.200 189.751,195.200 189.447 C 195.200 189.142,195.560 188.799,196.000 188.684 C 196.440 188.569,196.800 188.188,196.800 187.837 C 196.800 187.487,197.070 187.200,197.400 187.200 C 197.730 187.200,198.000 186.930,198.000 186.600 C 198.000 186.270,198.170 186.000,198.378 186.000 C 198.585 186.000,199.440 185.371,200.278 184.602 C 201.115 183.833,202.115 183.203,202.500 183.202 C 202.885 183.201,203.200 182.973,203.200 182.695 C 203.200 182.202,203.864 181.751,206.100 180.728 C 206.705 180.451,207.200 179.994,207.200 179.712 C 207.200 179.431,207.476 179.200,207.813 179.200 C 208.149 179.200,208.529 178.930,208.655 178.600 C 208.782 178.270,209.108 178.000,209.381 178.000 C 209.653 178.000,210.202 177.640,210.600 177.200 C 210.998 176.760,211.566 176.400,211.862 176.400 C 212.158 176.400,212.400 176.130,212.400 175.800 C 212.400 175.467,212.756 175.200,213.200 175.200 C 213.644 175.200,214.000 174.933,214.000 174.600 C 214.000 174.270,214.270 174.000,214.600 174.000 C 214.930 174.000,215.200 173.724,215.200 173.387 C 215.200 173.051,215.470 172.671,215.800 172.545 C 216.130 172.418,216.400 172.092,216.400 171.819 C 216.400 171.547,216.760 170.998,217.200 170.600 C 217.640 170.202,218.000 169.653,218.000 169.381 C 218.000 169.108,218.270 168.782,218.600 168.655 C 218.930 168.529,219.200 168.133,219.200 167.776 C 219.200 167.418,219.560 166.669,220.000 166.109 C 220.440 165.550,220.800 164.750,220.800 164.332 C 220.800 163.914,221.087 163.133,221.439 162.597 C 222.498 160.980,222.088 151.186,220.864 148.865 C 219.895 147.030,216.545 143.618,215.700 143.607 C 215.425 143.603,215.200 143.440,215.200 143.245 C 215.200 143.049,214.525 142.763,213.700 142.609 C 212.875 142.455,211.958 142.128,211.662 141.884 C 210.989 141.328,197.674 141.102,195.400 141.608 M215.057 149.049 C 216.786 149.406,218.548 149.941,218.974 150.238 C 220.944 151.614,221.897 157.507,220.631 160.487 C 220.284 161.305,220.000 162.335,220.000 162.775 C 220.000 164.690,216.630 170.054,213.400 173.279 C 211.714 174.964,208.849 177.139,204.200 180.265 C 197.203 184.971,189.113 193.729,186.339 199.600 C 184.478 203.537,184.000 204.712,184.000 205.346 C 184.000 205.728,183.757 206.526,183.460 207.120 C 180.318 213.400,179.949 232.637,182.861 238.300 C 186.710 245.784,190.476 247.372,204.400 247.386 C 220.846 247.403,221.788 246.720,223.032 233.883 C 223.791 226.052,223.994 224.729,224.549 224.000 C 224.800 223.670,225.454 222.533,226.003 221.473 C 227.926 217.758,230.355 215.493,237.600 210.658 C 238.590 209.997,240.161 208.769,241.091 207.928 C 242.021 207.088,242.958 206.400,243.173 206.400 C 243.387 206.400,245.949 204.149,248.865 201.398 C 253.649 196.886,254.228 196.457,254.784 197.016 C 255.525 197.762,255.539 218.355,254.803 224.080 C 254.568 225.906,254.112 229.608,253.791 232.306 C 253.469 235.004,252.952 238.334,252.642 239.706 C 251.816 243.356,251.212 246.327,250.823 248.662 C 250.488 250.672,250.330 251.254,248.992 255.400 C 248.637 256.500,248.200 258.089,248.021 258.932 C 247.842 259.775,247.494 260.666,247.248 260.912 C 247.002 261.158,246.800 261.615,246.800 261.926 C 246.800 262.478,244.382 268.003,243.617 269.200 C 243.406 269.530,242.753 270.790,242.167 272.000 C 238.595 279.367,230.628 288.387,229.419 286.431 C 229.294 286.228,229.020 283.933,228.810 281.331 C 228.384 276.038,227.952 273.386,227.321 272.200 C 227.087 271.760,226.482 270.500,225.977 269.400 C 220.325 257.094,205.470 249.784,193.000 253.175 C 187.420 254.692,187.162 254.840,183.164 258.800 C 178.520 263.401,176.776 266.648,175.755 272.600 C 175.094 276.448,175.665 282.919,176.865 285.194 C 177.269 285.961,177.606 286.861,177.613 287.194 C 177.620 287.527,177.890 288.149,178.213 288.576 C 179.099 289.748,178.992 292.000,178.050 292.000 C 173.508 292.000,160.000 275.983,160.000 270.598 C 160.000 270.323,159.730 269.874,159.400 269.600 C 159.070 269.326,158.799 268.719,158.798 268.251 C 158.796 267.783,158.543 266.917,158.235 266.327 C 157.927 265.737,157.545 264.657,157.387 263.927 C 157.228 263.197,156.851 262.245,156.549 261.811 C 156.247 261.377,156.000 260.600,156.000 260.085 C 156.000 259.569,155.777 258.754,155.505 258.274 C 155.232 257.793,154.798 256.230,154.539 254.800 C 154.280 253.370,153.614 249.860,153.059 247.000 C 152.504 244.140,151.855 240.022,151.618 237.850 C 151.380 235.677,151.104 233.769,151.005 233.608 C 149.503 231.177,149.373 193.099,150.814 177.200 C 152.365 160.072,152.425 159.950,157.317 163.826 C 159.122 165.257,161.050 166.538,161.600 166.674 C 162.150 166.809,162.955 167.163,163.389 167.460 C 165.751 169.077,170.662 167.617,174.159 164.256 C 175.380 163.083,177.149 161.601,178.090 160.963 C 179.030 160.324,179.908 159.654,180.041 159.473 C 180.586 158.728,185.972 155.148,188.296 153.986 C 189.668 153.299,190.894 152.572,191.019 152.369 C 191.145 152.166,191.561 152.000,191.944 152.000 C 192.327 152.000,192.863 151.777,193.136 151.504 C 195.276 149.364,209.090 147.817,215.057 149.049 " stroke="none" fill="#fda876" fill-rule="evenodd"></path></g></svg>